<svg version="1.1" viewBox="0.0 0.0 431.43832020997377 431.43832020997377" fill="none" stroke="none" stroke-linecap="square" stroke-miterlimit="10" xmlns:xlink="http://www.w3.org/1999/xlink" xmlns="http://www.w3.org/2000/svg"><clipPath id="p.0"><path d="m0 0l431.43832 0l0 431.43832l-431.43832 0l0 -431.43832z" clip-rule="nonzero"/></clipPath><g clip-path="url(#p.0)"><path fill="#000000" fill-opacity="0.0" d="m0 0l431.43832 0l0 431.43832l-431.43832 0z" fill-rule="evenodd"/><path fill="#0094ff" d="m79.29239 124.77361c0 -25.118584 20.36264 -45.481224 45.481224 -45.481224l181.91943 0c12.062378 0 23.630707 4.7917557 32.160095 13.321144c8.529358 8.529381 13.321136 20.09771 13.321136 32.16008l0 181.91943c0 25.118591 -20.36264 45.48123 -45.48123 45.48123l-181.91943 0c-25.118584 0 -45.481224 -20.36264 -45.481224 -45.48123z" fill-rule="evenodd"/><path stroke="#d9d9d9" stroke-width="24.0" stroke-linejoin="round" stroke-linecap="butt" d="m79.29239 124.77361c0 -25.118584 20.36264 -45.481224 45.481224 -45.481224l181.91943 0c12.062378 0 23.630707 4.7917557 32.160095 13.321144c8.529358 8.529381 13.321136 20.09771 13.321136 32.16008l0 181.91943c0 25.118591 -20.36264 45.48123 -45.48123 45.48123l-181.91943 0c-25.118584 0 -45.481224 -20.36264 -45.481224 -45.48123z" fill-rule="evenodd"/><path fill="#ffffff" d="m136.1276 229.12576l-17.228348 21.606293l67.1496 53.13385l17.228348 -21.606293z" fill-rule="evenodd"/><path fill="#ffffff" d="m312.57224 144.69608l-21.637787 -17.133858l-126.01576 159.21259l21.637802 17.13385z" fill-rule="evenodd"/></g></svg>