<svg version="1.1" viewBox="0.0 0.0 431.43832020997377 431.43832020997377" fill="none" stroke="none" stroke-linecap="square" stroke-miterlimit="10" xmlns:xlink="http://www.w3.org/1999/xlink" xmlns="http://www.w3.org/2000/svg"><clipPath id="p.0"><path d="m0 0l431.43832 0l0 431.43832l-431.43832 0l0 -431.43832z" clip-rule="nonzero"/></clipPath><g clip-path="url(#p.0)"><path fill="#000000" fill-opacity="0.0" d="m0 0l431.43832 0l0 431.43832l-431.43832 0z" fill-rule="evenodd"/><path fill="#ffe800" d="m37.441135 141.48222l356.56693 0l0 148.47243l-356.56693 0z" fill-rule="evenodd"/><path fill="#000000" d="m140.47224 181.2357l-9.644257 9.644257l24.822113 24.822128l-24.901169 24.901169l9.565216 9.565201l24.901169 -24.901169l24.822113 24.822128l9.644272 -9.644272l-24.822128 -24.822113l24.664017 -24.743073l-9.48616 -9.565201l-24.743057 24.743057l-24.822128 -24.822113z" fill-rule="evenodd"/><path fill="#000000" d="m264.44125 157.51714c-11.014496 0 -19.789185 2.8634033 -26.324097 8.5902405c-6.534912 5.709259 -10.303024 14.018433 -11.304337 24.92752l14.624496 1.5019684c0.0526886 -7.2727203 2.1343842 -12.9644165 6.245056 -17.075089c4.1106567 -4.1106567 9.591553 -6.1660004 16.442657 -6.1660004c6.4822083 0 11.734741 1.9411469 15.757568 5.823456c4.0404053 3.8647308 6.060608 8.616592 6.060608 14.255585c0 5.3754883 -2.21344 11.084747 -6.64032 17.127792c-4.4268494 6.025467 -12.938049 14.202881 -25.53357 24.532257c-8.115936 6.6403046 -14.325851 12.490112 -18.62976 17.549393c-4.286331 5.0592804 -7.40448 10.197632 -9.354401 15.415009c-1.2121277 3.1620483 -1.7654877 6.4558716 -1.66008 9.881409l76.60072 0l0 -13.675873l-56.83789 0c1.5810242 -2.5823364 3.5836487 -5.1471252 6.007889 -7.6943207c2.42424 -2.5647888 7.905136 -7.430832 16.442673 -14.59816c10.2239685 -8.642944 17.53183 -15.441345 21.923584 -20.395233c4.4093018 -4.953888 7.562561 -9.6706085 9.459808 -14.150192c1.8972168 -4.4795685 2.8458557 -9.038193 2.8458557 -13.675873c0 -9.117264 -3.2411194 -16.75888 -9.723328 -22.924896c-6.4822083 -6.1660004 -15.283264 -9.248993 -26.403137 -9.248993z" fill-rule="evenodd"/></g></svg>