<svg version="1.1" viewBox="0.0 0.0 431.43832020997377 431.43832020997377" fill="none" stroke="none" stroke-linecap="square" stroke-miterlimit="10" xmlns:xlink="http://www.w3.org/1999/xlink" xmlns="http://www.w3.org/2000/svg"><clipPath id="p.0"><path d="m0 0l431.43832 0l0 431.43832l-431.43832 0l0 -431.43832z" clip-rule="nonzero"/></clipPath><g clip-path="url(#p.0)"><path fill="#000000" fill-opacity="0.0" d="m0 0l431.43832 0l0 431.43832l-431.43832 0z" fill-rule="evenodd"/><path fill="#b7b7b7" d="m22.806526 313.55643c1.1115837 -107.12964 88.47784 -193.27983 195.61252 -192.88977c107.13469 0.3900528 193.87132 87.17411 194.20284 194.30899l-194.91246 0.6030884z" fill-rule="evenodd"/><path fill="#ffdf00" d="m222.08017 138.43903c40.3714 0.99534607 79.19177 15.75087 110.03165 41.82277l-114.39909 135.32027z" fill-rule="evenodd"/><path fill="#88e425" d="m42.065742 292.19702c11.6272545 -87.33331 85.65204 -152.85893 173.75092 -153.80168l1.8960724 177.18672z" fill-rule="evenodd"/><path fill="#f13d1c" d="m337.99377 185.46213c30.321259 28.028564 49.90213 65.76628 55.360657 106.69528l-175.64171 23.424652z" fill-rule="evenodd"/><path fill="#b7b7b7" d="m64.156845 313.9993c0.8758316 -84.408844 69.712845 -152.2877 154.12566 -151.98038c84.41281 0.30732727 152.75375 68.68562 153.01495 153.0986l-153.57408 0.4751892z" fill-rule="evenodd"/><path fill="#999999" d="m22.796064 304.28745l389.82678 0l0 22.582672l-389.82678 0z" fill-rule="evenodd"/><path fill="#666666" d="m204.29092 299.3173l140.06299 -88.58269l-113.165344 121.11812z" fill-rule="evenodd"/><path stroke="#666666" stroke-width="4.0" stroke-linejoin="round" stroke-linecap="butt" d="m204.29092 299.3173l140.06299 -88.58269l-113.165344 121.11812z" fill-rule="evenodd"/><path fill="#666666" d="m190.32788 315.583c0 -15.124756 12.261047 -27.385803 27.385818 -27.385803c7.2631683 0 14.228867 2.8852844 19.3647 8.021118c5.135849 5.1358337 8.021133 12.101532 8.021133 19.364685c0 15.124786 -12.261063 27.385834 -27.385834 27.385834c-15.124771 0 -27.385818 -12.261047 -27.385818 -27.385834z" fill-rule="evenodd"/></g></svg>